<svg xmlns="http://www.w3.org/2000/svg" viewBox="0 0 121 39">
  <g fill="none" fill-rule="evenodd">
    <path fill="#FFF" d="M10.004 11.65c0-1.17-.21-1.53-1.93-1.81-.18 0-.21-.09-.21-.21V9.1c0-.12.06-.18.25-.21 1.2-.25 2.79-.52 3.38-.64.28 0 .49-.09.71-.09.22 0 .18.21.15.55-.09 1.53-.12 6-.12 9.88v6.78c-.072.94.033 1.888.31 2.79.382.315.856.497 1.35.52.43 0 .55.06.61.21l.06.25c.025.073.015.154-.025.22-.042.065-.11.11-.186.12l-3.47 1.17c-.087.03-.183.02-.26-.028-.08-.05-.13-.13-.14-.222l-.4-1.35c-1.263 1.064-2.86 1.65-4.51 1.66-1.363.14-2.71-.384-3.62-1.41-1.384-1.277-2.097-3.124-1.93-5-.01-1.958.763-3.838 2.15-5.22 1.186-1.254 2.844-1.954 4.57-1.93 1.11-.006 2.215.15 3.28.46v-6l-.02.04zm0 9.73c.037-.516-.06-1.032-.28-1.5-.66-1.132-1.915-1.78-3.22-1.66-1.043-.03-2.053.37-2.79 1.11-.972 1.13-1.476 2.59-1.41 4.08 0 3.47 2.39 6 4.17 6 1.34.098 2.625-.552 3.34-1.69.12-.32.18-.66.18-1v-5.34h.01zM17.374 21.41c0-1-.18-1.6-1.72-1.84-.21 0-.28-.09-.28-.21v-.29c.02-.126.132-.217.26-.21 1.138-.42 2.244-.92 3.31-1.5.176-.106.375-.168.58-.18.11-.01.11.14.11.39-.06.52-.06 2.46-.06 5v5.98c.06.58.15.8.49.8h1.41c.25 0 .31.09.31.28v.52c.027.082.008.172-.05.237-.058.064-.146.092-.23.073-.25 0-1.66-.09-2.95-.09-1.78 0-3 .09-3.31.09-.07.015-.143-.006-.193-.057-.05-.05-.07-.123-.056-.193v-.64c0-.18.09-.25.31-.25h1.5c.34 0 .46-.12.49-.61v-7.3h.08zm-1.44-9.42c.023-.486.24-.942.604-1.265.363-.324.84-.488 1.326-.455.438-.01.862.156 1.175.464.312.307.487.728.484 1.166.013.497-.186.976-.546 1.32-.36.342-.848.517-1.344.48-.908-.08-1.626-.802-1.7-1.71zM23.814 37.7c-.954-.463-1.56-1.43-1.56-2.49 0-1.72 1.75-3 3.22-3.68v-.12c-1.106-.146-1.962-1.04-2.06-2.15 0-1.47 1.69-2.52 2.76-2.92v-.06c-1.812-.826-2.94-2.67-2.85-4.66 0-2 1.78-4.45 5.25-4.45 1.493-.025 2.917.63 3.87 1.78.823-.672 1.824-1.09 2.88-1.2.37-.05.74.064 1.018.313.277.248.43.605.422.977-.022.642-.558 1.147-1.2 1.13-.403-.006-.788-.172-1.07-.46-.18-.154-.404-.25-.64-.28-.343-.018-.685.043-1 .18.312.737.47 1.53.46 2.33.03 1.203-.372 2.376-1.13 3.31-1.357 1.308-3.29 1.83-5.12 1.38-.61.25-1.63.86-1.63 1.72 0 1.26 1.53 1.17 3.59 1 2.52-.12 4.05.15 5.28 1.11.948.683 1.507 1.782 1.5 2.95.02 1.53-.762 2.96-2.06 3.77-1.565.997-3.395 1.5-5.25 1.44-1.613.092-3.222-.225-4.68-.92zm10.13-3.13c0-1.81-1.38-3.19-4.45-3l-2.95.21c-1.37.35-2.362 1.54-2.46 2.95.075.847.512 1.62 1.2 2.12 1 .71 2.12.86 4.3.86 1.14-.01 4.51-.81 4.36-3.14zm-2.85-13.1c.095-.993-.203-1.984-.83-2.76-.394-.392-.916-.63-1.47-.67-.817-.043-1.613.27-2.18.86-.82 1.02-1.214 2.317-1.1 3.62-.024.986.335 1.942 1 2.67.48.5 1.147.78 1.84.77 2.06-.01 2.74-2.56 2.74-4.49zM39.224 21.41c0-1-.18-1.6-1.72-1.84-.21 0-.28-.09-.28-.21v-.29c.016-.108.1-.194.21-.21 1.138-.42 2.244-.92 3.31-1.5.176-.106.375-.168.58-.18.15 0 .18.15.15.37-.06.52-.06 2.46-.06 5v5.98c.06.58.15.8.49.8h1.41c.32-.01.32.08.32.24v.52c.027.082.008.172-.05.237-.058.064-.146.092-.23.073-.25 0-1.66-.09-2.95-.09-1.78 0-3 .09-3.31.09-.07.015-.143-.006-.193-.057-.05-.05-.07-.123-.056-.193v-.58c0-.18.09-.25.31-.25h1.5c.34 0 .46-.12.49-.61v-7.3h.08zm-1.44-9.42c.023-.486.24-.942.604-1.265.363-.324.84-.488 1.326-.455.438-.01.862.156 1.175.464.312.307.487.728.484 1.166.014.49-.176.963-.525 1.307-.35.343-.827.525-1.316.503-.93-.057-1.677-.79-1.75-1.72zM46.634 22.17c0-1.57-.25-1.87-1.1-2.33l-.57-.27c-.18-.06-.25-.09-.25-.21v-.22c.01-.14.113-.253.25-.28l3-1.56c.13-.075.28-.116.43-.12.24-.01.24.18.24.39l.15 2.18h.12c.92-1.41 2.36-2.67 3.68-2.67.39-.048.783.07 1.08.328.297.258.472.63.48 1.022.016.756-.54 1.403-1.29 1.5-.312-.013-.617-.098-.89-.25-.306-.17-.65-.255-1-.25-.794.067-1.488.562-1.81 1.29-.156.315-.26.652-.31 1v6.35c0 1 .21 1.26.86 1.26h1.44c.18 0 .21.09.21.28v.55c0 .18 0 .28-.15.28s-1.6-.09-3.25-.09c-1.9 0-3.19.09-3.37.09-.18 0-.18-.06-.18-.31v-.56c0-.21.06-.28.34-.28h1.2c.168.044.347.007.483-.102.136-.108.213-.274.207-.448v-6.57zM64.914 28.99c.4.018.79-.134 1.07-.42.12-.15.18-.21.31-.12l.34.2c.14.156.14.394 0 .55-.418.94-1.363 1.532-2.39 1.5-1.138-.05-2.067-.927-2.18-2.06h-.13c-.812.884-1.85 1.53-3 1.87-.59.155-1.2.216-1.81.18-.74 0-1.84-.61-1.84-2.55 0-1.41.64-2.64 3.07-3.71 1.21-.48 2.373-1.077 3.47-1.78v-2c.004-.6-.144-1.192-.43-1.72-.485-.483-1.158-.728-1.84-.67-.717 0-1.416.223-2 .64-.43.4-.15.86-.15 1.41.1.466-.035.95-.36 1.3-.324.348-.798.516-1.27.45-.49 0-.74-.28-.74-1 .193-1.25.984-2.325 2.12-2.88 1.115-.715 2.415-1.087 3.74-1.07.898-.087 1.79.215 2.45.83.537.59.785 1.39.68 2.18v6.51c-.03 1.8.33 2.36.89 2.36zm-3.16-5.42c-1.12.84-4.12 1.46-4.12 4-.055.447.093.895.402 1.222.31.326.75.498 1.198.468.89 0 2.52-1.07 2.52-1.9v-3.79zM71.354 26.5c0 2.3 1 2.7 1.6 2.7.69.025 1.374-.112 2-.4.055-.045.128-.065.2-.053.07.01.132.052.17.113l.15.28c.038.053.053.12.042.183-.01.064-.048.12-.102.157-.95.81-2.162 1.246-3.41 1.23-1.495-.04-2.752-1.135-3-2.61 0-1.26.09-4 .09-4.39v-.68c0-.55 0-2.64.06-3.93h-1.82c-.112.024-.23-.004-.318-.075-.09-.072-.142-.18-.142-.295.064-.273.277-.486.55-.55 1.402-1.044 2.59-2.348 3.5-3.84.048-.195.23-.326.43-.31.25 0 .31.21.31.46l-.15 3h4.27c.072-.01.144.02.188.078.043.058.052.136.022.202l-.36 1.09c0 .072-.03.14-.084.188-.053.048-.125.07-.196.062h-4c-.06 1.41-.09 2.92-.09 4.33v3.07l.09-.01zM78.474 21.41c0-1-.18-1.6-1.72-1.84-.21 0-.28-.09-.28-.21v-.29c.016-.108.1-.194.21-.21 1.138-.42 2.244-.92 3.31-1.5.192-.12.413-.185.64-.19.15 0 .18.15.15.37-.06.52-.06 2.46-.06 5v5.98c.06.58.15.8.49.8h1.42c.25 0 .31.09.31.28v.52c.027.082.008.172-.05.237-.058.064-.146.092-.23.073-.25 0-1.66-.09-2.95-.09-1.78 0-3 .09-3.31.09-.07.015-.143-.006-.193-.057-.05-.05-.07-.123-.056-.193v-.61c0-.18.09-.25.31-.25h1.5c.34 0 .46-.12.49-.61v-7.3h.02zm-1.44-9.42c.023-.486.24-.942.604-1.265.363-.324.84-.488 1.326-.455.438-.014.863.15 1.178.456.315.306.492.726.492 1.164.014.49-.176.963-.525 1.307-.35.343-.827.525-1.316.503-.93-.052-1.682-.78-1.76-1.71z"/>
    <path fill="#FFF" d="M99.374 22.23l-11.12-11.11L99.374 0l11.12 11.12-11.12 11.11zm-9-11.12l9 9 9-9-9-9-9 9z"/>
    <path fill="#FFF" d="M109.074 22.23l-11.11-11.11L109.084 0l11.12 11.12-11.13 11.11zm-9-11.12l9 9 9-9-9-9-9 9z"/>
  </g>
</svg>
