<svg xmlns="http://www.w3.org/2000/svg" xmlns:xlink="http://www.w3.org/1999/xlink" class="s-svg-icon">

  <symbol id="arrow-down" viewBox="0 0 29 29"><title>arrow-down</title><path d="M13 23.123L4.113 14 2 16.17 14.5 29 27 16.17 24.887 14 16 23.123V0h-3z" fill-rule="nonzero" fill="currentColor"/></symbol>
  <symbol id="arrow-left" viewBox="0 0 29 29"><title>arrow-left</title><path d="M5.877 13L15 4.113 12.83 2 0 14.5 12.83 27 15 24.887 5.877 16H29v-3z" fill-rule="nonzero" fill="currentColor"/></symbol>
  <symbol id="arrow-right" viewBox="0 0 29 29"><title>arrow-right</title><path d="M23.123 16L14 24.887 16.17 27 29 14.5 16.17 2 14 4.113 23.123 13H0v3z" fill="currentColor" fill-rule="nonzero"/></symbol>
  <symbol id="arrow-up" viewBox="0 0 29 29"><title>arrow-up</title><path d="M16 5.877L24.887 15 27 12.83 14.5 0 2 12.83 4.113 15 13 5.877V29h3z" fill-rule="nonzero" fill="currentColor"/></symbol>
  <symbol id="bag" viewBox="0 0 62 62"><title>bag</title><path d="M7 22.31C7 19.93 8.795 18 11.016 18h39.968C53.202 18 55 19.923 55 22.31v35.38c0 2.38-1.795 4.31-4.016 4.31H11.016C8.798 62 7 60.077 7 57.69V22.31zm4-.31v36h40V22H11zm31-11.111V15H20v-4.111C20 4.875 24.925 0 31 0s11 4.875 11 10.889zm-4-.356C38 6.925 34.866 4 31 4s-7 2.925-7 6.533V15h14v-4.467z" fill="currentColor" fill-rule="nonzero"/></symbol>
  <symbol id="bibliography" viewBox="0 0 100 100"><title>bag</title><path d="M100.078 3.123H12.171a11.15 11.15 0 1 0 0 22.3h87.903c-6.052-.036-10.945-5.013-10.945-11.15 0-6.137 4.893-11.115 10.95-11.15zM.021 61.103h87.904a11.15 11.15 0 0 0 0-22.3H.02c6.048.036 10.945 5.013 10.945 11.15 0 6.137-4.897 11.115-10.945 11.15zm100.057 13.38H12.171a11.15 11.15 0 1 0 0 22.301h87.903c-6.052-.036-10.945-5.013-10.945-11.15 0-6.137 4.893-11.115 10.945-11.15z" fill="currentColor" fill-rule="evenodd"/></symbol>
  <symbol id="calendar" viewBox="0 0 100 100"><title>calendar</title><path d="M12 92h15.75V76.25H12V92zm19.25 0h17.5V76.25h-17.5V92zM12 72.75h15.75v-17.5H12v17.5zm19.25 0h17.5v-17.5h-17.5v17.5zM12 51.75h15.75V36H12v15.75zM52.25 92h17.5V76.25h-17.5V92zm-21-40.25h17.5V36h-17.5v15.75zm42 40.25H89V76.25H73.25V92zm-21-19.25h17.5v-17.5h-17.5v17.5zM33 25.5V9.75c0-.474-.173-.884-.52-1.23A1.682 1.682 0 0 0 31.25 8h-3.5c-.474 0-.884.173-1.23.52-.347.346-.52.756-.52 1.23V25.5c0 .474.173.884.52 1.23.346.347.756.52 1.23.52h3.5c.474 0 .884-.173 1.23-.52.347-.346.52-.756.52-1.23zm40.25 47.25H89v-17.5H73.25v17.5zm-21-21h17.5V36h-17.5v15.75zm21 0H89V36H73.25v15.75zM75 25.5V9.75c0-.474-.173-.884-.52-1.23A1.682 1.682 0 0 0 73.25 8h-3.5c-.474 0-.884.173-1.23.52-.347.346-.52.756-.52 1.23V25.5c0 .474.173.884.52 1.23.346.347.756.52 1.23.52h3.5c.474 0 .884-.173 1.23-.52.347-.346.52-.756.52-1.23zM96 22v70c0 1.896-.693 3.536-2.078 4.922C92.536 98.307 90.896 99 89 99H12c-1.896 0-3.536-.693-4.922-2.078C5.693 95.536 5 93.896 5 92V22c0-1.896.693-3.536 2.078-4.922C8.464 15.693 10.104 15 12 15h7V9.75c0-2.406.857-4.466 2.57-6.18C23.284 1.857 25.344 1 27.75 1h3.5c2.406 0 4.466.857 6.18 2.57C39.143 5.284 40 7.344 40 9.75V15h21V9.75c0-2.406.857-4.466 2.57-6.18C65.284 1.857 67.344 1 69.75 1h3.5c2.406 0 4.466.857 6.18 2.57C81.143 5.284 82 7.344 82 9.75V15h7c1.896 0 3.536.693 4.922 2.078C95.307 18.464 96 20.104 96 22z" fill="currentColor" fill-rule="nonzero"/></symbol>
  <symbol id="clock" viewBox="0 0 100 100"><title>clock</title><path d="M50 11.889c-21.016 0-38.111 17.095-38.111 38.111S28.984 88.111 50 88.111 88.111 71.016 88.111 50 71.016 11.889 50 11.889zM63.829 23.43l1.415-2.395c.327-.654 1.198-.872 1.852-.545.653.327.87 1.198.544 1.851l-1.416 2.396c-.217.435-.762.653-1.197.653-.218 0-.436-.109-.654-.218-.762-.326-.98-1.089-.544-1.742zm-15.136-6.098c0-.762.654-1.415 1.416-1.415.762 0 1.415.653 1.415 1.415v2.723c0 .762-.653 1.415-1.415 1.415a1.441 1.441 0 0 1-1.416-1.415v-2.723zm-31.36 34.083A1.441 1.441 0 0 1 15.918 50c0-.762.653-1.416 1.415-1.416h2.723c.762 0 1.415.654 1.415 1.416 0 .762-.653 1.416-1.415 1.416h-2.723zm7.405 14.7l-2.396 1.415c-.218.109-.435.218-.653.218-.436 0-.98-.218-1.198-.653-.327-.654-.109-1.525.545-1.852l2.395-1.415c.653-.327 1.525-.109 1.851.544.327.545.11 1.416-.544 1.743zm.544-30.38c-.218.435-.762.653-1.198.653-.217 0-.435-.109-.653-.218l-2.395-1.415c-.654-.327-.872-1.198-.545-1.852.327-.653 1.198-.87 1.851-.544l2.396 1.416c.653.435.87 1.306.544 1.96zm10.89 40.833l-1.416 2.395c-.218.436-.763.654-1.198.654-.218 0-.436-.11-.654-.218-.653-.327-.87-1.198-.544-1.851l1.416-2.396c.326-.653 1.197-.87 1.85-.544.763.544.98 1.307.545 1.96zm-.436-51.287c-.218.11-.436.218-.654.218-.435 0-.98-.218-1.198-.653L32.47 22.45c-.327-.653-.109-1.524.544-1.851.654-.327 1.525-.109 1.851.544l1.416 2.396c.327.544.109 1.307-.544 1.742zm15.68 57.385c0 .762-.654 1.415-1.416 1.415a1.441 1.441 0 0 1-1.416-1.415v-2.723c0-.762.654-1.415 1.416-1.415.762 0 1.416.653 1.416 1.415v2.723zm15.57-3.158c-.217.109-.435.218-.653.218-.435 0-.98-.218-1.197-.654l-1.416-2.395c-.327-.654-.109-1.525.544-1.851.654-.327 1.525-.11 1.852.544l1.415 2.396c.327.544.109 1.306-.544 1.742zm2.07-28.093H53.81a4.081 4.081 0 0 1-2.504 2.504v1.524c0 .763-.654 1.416-1.416 1.416a1.441 1.441 0 0 1-1.415-1.416v-1.633a4.081 4.081 0 0 1-2.505-2.504h-1.415a1.441 1.441 0 0 1-1.416-1.416c0-.762.653-1.415 1.416-1.415h1.633a4.081 4.081 0 0 1 2.504-2.505V28.222c0-.762.654-1.415 1.416-1.415.762 0 1.415.653 1.415 1.415V46.19a4.081 4.081 0 0 1 2.505 2.504h15.244c.763 0 1.416.654 1.416 1.416 0 .762-.871 1.307-1.633 1.307zm10.453 15.57c-.218.436-.762.654-1.198.654-.218 0-.435-.109-.653-.218l-2.396-1.415c-.653-.327-.87-1.198-.544-1.851.326-.654 1.198-.872 1.85-.545l2.396 1.416c.654.544.872 1.306.545 1.96zm3.158-18.293c.762 0 1.415.654 1.415 1.416 0 .762-.653 1.415-1.415 1.415h-2.723a1.441 1.441 0 0 1-1.415-1.415c0-.762.653-1.416 1.415-1.416h2.723zM50 1c27.004 0 49 21.996 49 49S77.004 99 50 99 1 77.004 1 50 22.996 1 50 1zm29.509 32.013c.327.654.109 1.525-.545 1.851L76.57 36.28c-.218.109-.436.218-.653.218-.436 0-.98-.218-1.198-.654-.327-.653-.11-1.524.544-1.85l2.396-1.416c.653-.436 1.415-.218 1.85.435zM50 93.556c24.064 0 43.556-19.492 43.556-43.556C93.556 25.936 74.064 6.444 50 6.444 25.936 6.444 6.444 25.936 6.444 50c0 24.064 19.492 43.556 43.556 43.556zm0-42.14a1.416 1.416 0 1 1 0-2.832 1.416 1.416 0 0 1 0 2.832z" fill="currentColor" fill-rule="nonzero"/></symbol>
  <symbol id="close-menu" viewBox="0 0 100 100"><title>close-menu</title><path d="M53.203 37.187L88.438 1.952C89.74.65 91.341 0 93.243 0c1.902 0 3.504.65 4.805 1.952C99.35 3.253 100 4.855 100 6.757c0 1.902-.65 3.503-1.952 4.805L62.813 46.797l-9.61-9.61zM37.187 53.203l9.61 9.61-35.235 35.235C10.26 99.349 8.659 100 6.757 100c-1.902 0-3.504-.65-4.805-1.952C.651 96.747 0 95.145 0 93.243c0-1.902.65-3.503 1.952-4.805l35.235-35.235zM1.952 11.562C.65 10.26 0 8.659 0 6.757c0-1.902.65-3.504 1.952-4.805C3.253.65 4.855 0 6.757 0c1.902 0 3.503.65 4.805 1.952l86.486 86.486C99.349 89.74 100 91.341 100 93.243c0 1.902-.65 3.504-1.952 4.805-1.301 1.301-2.903 1.952-4.805 1.952-1.902 0-3.503-.65-4.805-1.952L1.952 11.562z" fill="currentColor" fill-rule="nonzero"/></symbol>
  <symbol id="close" viewBox="0 0 100 100"><title>close</title><path d="M50 39.254L10.749 0 0 10.742l39.251 39.254L0 89.251 10.749 100 50 60.746 89.251 100 100 89.243 60.749 49.99 100 10.734 89.244 0 49.992 39.254z" fill="currentColor" fill-rule="evenodd"/></symbol>
  <symbol id="cycle" viewBox="0 0 100 100"><title>cycle</title><path d="M88.76 60.459a11.1 11.1 0 0 0-5.488 1.447l-4.45-6.69v-7.323h-.864c-.235 0-.485.005-.735.008-1.314.022-2.674.048-3.315-.583-.329-.322-.485-.842-.485-1.592a.857.857 0 0 0-.86-.867c-.469 0-.86.388-.86.867 0 1.222.344 2.175 1 2.83 1.127 1.103 2.847 1.108 4.41 1.08v3.674h-8.568c1.329-2.286 3.44-8.45.078-8.481-2.44-.016-11.196.362-11.305.047-.11-.315 6.802-6.321 6.911-7.504.11-1.182 0-3.2 0-4.366 0-.725.954-.725 1.016.031.079 1.057-.03 4.525.11 5.675.11.899 5.738 3.673 8.6 5.817.813.615.328 1.608.735 1.955 1.83 1.56 4.972-.11 2.814-1.876-1-.82-9.357-7.22-9.357-7.22s.579-7.078.72-8.954c.092-1.909-1.637-2.776-1.637-2.776l1.788-2.096a3.013 3.013 0 0 0 4.683-2.529A3.034 3.034 0 0 0 70.668 18a3.033 3.033 0 0 0-2.94 2.308c-3.25 3.805-18.511 21.808-17.636 26.001.47 2.27 3.425 4.808 6.481 7.003H45.667v-5.415h-.864c-.24 0-.485.004-.735.007-1.314.023-2.677.048-3.315-.583-.329-.321-.485-.842-.485-1.592a.866.866 0 0 0-.865-.867.866.866 0 0 0-.864.867c0 1.222.344 2.175 1.016 2.83 1.126 1.103 2.846 1.108 4.394 1.081v3.673H35.38c1.33-2.297 3.44-8.454.078-8.484-2.439-.016-11.195.362-11.305.047-.11-.315 6.802-6.321 6.912-7.504.109-1.182 0-3.2 0-4.366 0-.725.953-.725 1 .047.078 1.056-.031 4.524.11 5.675.11.899 5.738 3.673 8.6 5.817.813.615.312 1.608.719 1.955 1.845 1.56 4.972-.11 2.814-1.876-1-.82-9.35-7.22-9.35-7.22s.578-7.078.72-8.954c.156-1.876-1.58-2.743-1.58-2.743l1.798-2.097a3.032 3.032 0 0 0 4.707-2.522 3.025 3.025 0 0 0-3.018-3.042c-1.423 0-2.604.993-2.929 2.317-3.276 3.8-18.529 21.802-17.669 25.995.47 2.27 3.425 4.808 6.483 7.004h-3.565a.872.872 0 0 0-.774.48L15.394 61.3a11.176 11.176 0 0 0-4.136-.804C5.041 60.467 0 65.518 0 71.735 0 77.946 5.035 83 11.227 83c5.3 0 9.741-3.72 10.919-8.67h8.28c.454.268.97.425 1.533.425s1.087-.173 1.532-.441h30.632c.453.268.97.43 1.537.43.563 0 1.083-.173 1.532-.441h10.661c1.173 4.966 5.618 8.67 10.914 8.67 6.192 0 11.233-5.057 11.233-11.268s-5.035-11.271-11.227-11.271l-.012.025zm-5.966 3.856l3.341 5.029h-6.567a9.621 9.621 0 0 1 3.237-5.03h-.011zm-29.35-9.273l9.273 14.298H34.659l9.215-14.298h9.57zm-37.304 8.54a9.544 9.544 0 0 1 4.275 5.76h-7.146l2.87-5.754v-.006zm-4.916 17.676c-5.238 0-9.502-4.275-9.502-9.532 0-5.258 4.264-9.535 9.502-9.535 1.185 0 2.317.23 3.361.631l-2.945 5.912c-.136-.016-.274-.041-.416-.041a3.026 3.026 0 1 0 0 6.053 3.01 3.01 0 0 0 1.535-.441h7.6c-1.133 3.988-4.796 6.936-9.138 6.936l.003.017zm9.34-7.8h-6.865a2.983 2.983 0 0 0 .13-3.247h6.765c.079.493.133.997.133 1.513 0 .593-.062 1.171-.164 1.734zm-3.649-11.429l3.295-6.611 9.022 13.922h-7.036c-.673-3.105-2.643-5.738-5.285-7.314l.004.003zm5.395 11.429c.087-.567.145-1.143.145-1.734 0-.514-.047-1.018-.114-1.513h7.011a3.02 3.02 0 0 0-.417 1.513c0 .646.203 1.242.547 1.734h-7.177.005zm7.313-6.704l-7.6-11.713h3.91c2.517 1.67 4.612 2.98 4.816 3.531.406 1.12-.735 6.337-1.157 8.166l.03.016zm1.032-13.447c-2.58-1.923-5.332-3.83-5.191-4.162.14-.331 6.723-.19 6.723-.19s1.439-.472-.14 2.807c-.235.473.343 1.056 1.031 1.513h-2.423v.032zm2.251 15.543l-.03-.016c.984-3.483 2.61-9.71 2.048-11.65-.141-.488-.954-1.276-2.049-2.175h8.913L32.89 68.834l.015.016zm1.517 4.588a3.005 3.005 0 0 0 .547-1.735c0-.551-.156-1.071-.422-1.513h28.49a2.933 2.933 0 0 0-.423 1.513c0 .647.204 1.246.548 1.735h-28.74zm28.427-7.063L55.5 55.041h3.597c2.502 1.67 4.613 2.98 4.816 3.531.391 1.056-.594 5.722-1.063 7.803zm.954-13.084c-2.58-1.923-5.332-3.83-5.192-4.162.141-.33 6.724-.189 6.724-.189s1.439-.473-.14 2.806c-.22.473.359 1.056 1.031 1.514h-2.423v.031zm2.61 15.496c-.124-.031-.234-.063-.359-.079 1.001-3.5 2.58-9.616 2.017-11.523-.14-.489-.953-1.277-2.048-2.176h9.241l-8.866 13.762.016.016zm2.237 2.916c0-.551-.156-1.071-.422-1.513h9.381c-.062.489-.109.993-.109 1.513 0 .584.047 1.167.14 1.735h-9.553c.36-.49.563-1.088.563-1.735zm9.116-2.38h-9.648l8.85-13.762 4.832 7.283a11.288 11.288 0 0 0-4.05 6.48h.016zm1.47 2.38c0-.52.047-1.024.125-1.513h6.77a2.933 2.933 0 0 0-.422 1.513c0 .647.203 1.246.547 1.735h-6.864a9.183 9.183 0 0 1-.172-1.735h.016zm9.506 9.538c-4.346 0-8.005-2.948-9.147-6.936h7.6c.453.268.969.425 1.532.425a3.029 3.029 0 0 0 3.018-3.027 3.032 3.032 0 0 0-3.034-3.026c-.313 0-.61.047-.891.142l-3.643-5.502a9.322 9.322 0 0 1 4.522-1.15c5.238 0 9.499 4.271 9.499 9.536 0 5.266-4.253 9.538-9.491 9.538h.035z" fill="currentColor" fill-rule="evenodd"/></symbol>
  <symbol id="download-2" viewBox="0 0 100 100"><title>download-2</title><path d="M37.5 0v37.5h-25L50 75l37.5-37.5h-25V0h-25zM0 87.5V100h100V87.5H0z" fill="currentColor" fill-rule="nonzero"/></symbol>
  <symbol id="download" viewBox="0 0 100 100"><title>download</title><path d="M88.65 98.563H12.334c-2.39 0-4.334-1.981-4.334-4.43V68.766c0-2.444 1.939-4.43 4.334-4.43 2.39 0 4.33 1.986 4.33 4.43v20.927h67.668V68.766c0-2.444 1.944-4.43 4.334-4.43 2.39 0 4.334 1.986 4.334 4.43v25.367c0 2.444-1.933 4.435-4.329 4.435l-.021-.005zm-16.7-50.406L53.552 66.976c-.488.499-1.094.887-1.779 1.1-.122.052-.265.079-.404.105a3.875 3.875 0 0 1-.87.096 4.043 4.043 0 0 1-2.008-.51 4.111 4.111 0 0 1-.362-.223 2.575 2.575 0 0 1-.355-.266 2.193 2.193 0 0 1-.33-.297l-18.41-18.824c-1.7-1.726-1.7-4.541 0-6.268a4.26 4.26 0 0 1 6.125 0l10.995 11.26V6.436C46.153 3.981 48.102 2 50.492 2c2.39 0 4.329 1.981 4.329 4.435V53.15l11.005-11.271a4.275 4.275 0 0 1 6.13 0c1.7 1.731 1.7 4.552 0 6.267l-.005.011z" fill="currentColor" fill-rule="nonzero"/></symbol>
  <symbol id="drive" viewBox="0 0 100 100"><title>drive</title><path d="M53.492 30.37c2.633.506 5.438.99 7.908 2.217 1.053.522 1.781 1.48 2.338 2.485 1.488 2.102 3.026 4.168 4.518 6.267.41.597 1.048.982 1.658 1.348.536.174 1.12.073 1.676.098 1.349.025 2.706-.093 4.045.116 1.412.133 2.837-.066 4.242.17 2.62.082 5.216.553 7.839.561 1.674.18 3.367.252 5.017.624.08.376.12.762.252 1.127.282.365.72.574 1.042.902.413.38.584.942.966 1.345.663.41 1.627.19 2.155.849.651.89.614 2.067.508 3.112-.1.797-.724 1.335-1.212 1.91-.318.711.307 1.255.637 1.806.326.563-.13 1.114-.463 1.54-.309.358-.296.88-.173 1.31.211.476.939.447 1.191.025.535-.856.362-1.924.666-2.849.693-.16.857.728.8 1.232-.11.78.159 1.572.777 2.074l.121-.47v2.702c-.601.3-1.164.69-1.827.686-.406.032-.823-.013-1.216.1-.457.315-.645.917-1.151 1.18-.284.168-.627.133-.94.146-.24-.277-.42-.733-.848-.728-1.329-.116-2.69.153-3.993-.219-.314-.135-.884.239-.86.544-.024 1.857-1.234 3.932-2.12 4.992-.888 1.06-2.268 2.171-4.975 2.171-2.708 0-4.631-.667-5.454-1.43-.852-.775-1.62-2.071-2.294-3.107-.291-.447-1.86-.444-2.397-.447H33.89c-.64.012-1.287-.05-1.922.055-.408.11-.533.565-.717.893-.54 1.246-1.557 2.206-2.593 3.046-.721.6-2.951 1.247-4.72 1.247-1.768 0-3.204-.386-3.705-.67a8.061 8.061 0 0 1-4.059-4.893c-.12-.321-.23-.786-.652-.805-1.286-.143-2.637.172-3.877-.297-.579-.21-.494-.917-.756-1.365-.244-.235-.612-.174-.919-.197-.71.011-1.423.011-2.126-.108-1.063-.154-2.153.076-3.203-.184-.462-.101-.84-.42-1.302-.514-.352-.041-.72-.051-1.067.038-.314.2-.47.774-.923.627-.45-.2-.83-.526-1.253-.774-.025.112-.096-2.15-.096-2.15l.091-.117c1.022-.593 1.243-1.966 1.147-3.054l.485-.249c.345 1.071.043 2.21.222 3.303.148.44.676.415 1.052.4.297.016.667-.123.706-.458.206-1.084.447-2.165.68-3.243.836-1.6 1.66-3.233 2.825-4.63.77-.888 1.488-1.835 2.432-2.553 2.491-2.266 5.551-3.818 8.752-4.823.746-.174.794-1.015 1.101-1.575 1.261-1.812 2.446-3.7 3.956-5.32.742-.639 1.377-1.413 2.227-1.917 3.623-2.292 7.839-3.43 12.03-4.145.393-.068 7.975-.327 7.975-.327s7.052.224 7.81.37zm-11.407 4.75c1.031-.085 2.071-.02 3.106-.041.302.03.674-.055.905.194.24.233.155.6.186.898-.015 2.305.02 4.611-.016 6.914.041.421-.376.698-.763.647-3.59.011-7.18.011-10.77 0-.392.053-.813-.229-.768-.655-.025-1.84-.021-3.683-.002-5.523-.03-.569.567-.807 1.009-.972 2.259-.921 4.702-1.23 7.113-1.462zm7.478.14a91.761 91.761 0 0 1 3.575 0c1.445.198 2.917.203 4.35.488.387.027.623.402.58.768.007 2.187.022 4.377-.008 6.564.043.421-.37.703-.758.652-2.583.006-5.166.021-7.747-.008-.425.041-.7-.379-.646-.765-.012-2.316-.012-4.63 0-6.945-.052-.388.232-.798.654-.755zm9.193.792c.746.013 1.247.598 1.736 1.08 1.22 1.145 2.098 2.584 3.084 3.922.47.682 1.039 1.315 1.32 2.107-.18.41-.534.737-1.006.727-1.664.036-3.33.016-4.995.001-.451-.338-.348-.923-.362-1.416.012-1.881-.006-3.763.009-5.645-.014-.277.108-.53.214-.776zm-27.221 3.075c.302-.273.61-.65 1.07-.57.319.338.187.84.222 1.259-.035 1.069.065 2.145-.055 3.21-.244.528-.917.341-1.38.382-.867-.07-1.797.176-2.611-.212-.017-.714.417-1.3.784-1.872.536-.832 1.274-1.5 1.97-2.197zM23.92 67.016a4.48 4.48 0 0 0 4.485-4.477 4.48 4.48 0 0 0-4.485-4.477 4.48 4.48 0 0 0-4.485 4.477 4.48 4.48 0 0 0 4.485 4.477zm57.808 0a4.48 4.48 0 0 0 4.485-4.477 4.48 4.48 0 0 0-4.485-4.477 4.48 4.48 0 0 0-4.485 4.477 4.48 4.48 0 0 0 4.485 4.477z" fill="currentColor" fill-rule="evenodd"/></symbol>
  <symbol id="event-none" viewBox="0 0 100 100"><title>event-none</title><path d="M55.095 63.99l8.7-8.689-5.295-5.289-8.7 8.689-8.702-8.689-5.296 5.29 8.701 8.688-8.7 8.689 5.295 5.288L49.8 69.28l8.7 8.688 5.297-5.288-8.7-8.69zm23.917-49.127h16.046c2.73 0 4.942 2.206 4.942 4.922v70.293A4.927 4.927 0 0 1 95.058 95H4.942C2.212 95 0 92.794 0 90.078V19.785a4.927 4.927 0 0 1 4.942-4.922h16.046V5h6.172v9.863h45.68V5h6.172v9.863zM4.938 40.753v49.315h90.124V40.753H4.938zm74.074-20.958v9.863H72.84V14.863h-2.47v4.932H29.63v-4.932h-2.47v14.795h-6.172V14.863h-2.47v4.932H4.939v16.027h90.124V19.795h-13.58v-4.932h-2.47v4.932z" fill="currentColor" fill-rule="nonzero"/></symbol>
  <symbol id="facebook" viewBox="0 0 100 100"><title>Facebook</title><path d="M57.685 97V54.122h14.392l2.155-16.71H57.685V26.743c0-4.838 1.344-8.135 8.281-8.135l8.849-.004V3.66C73.285 3.455 68.032 3 61.921 3c-12.758 0-21.492 7.787-21.492 22.088v12.324H26v16.71h14.429V97h17.256z" fill-rule="nonzero" fill="currentColor"/></symbol>
  <symbol id="flickr" viewBox="0 0 100 100"><title>Flickr</title><path d="M46.534 49.642c0-11.877-9.804-21.574-21.812-21.574-12.007 0-21.811 9.697-21.811 21.574 0 11.876 9.804 21.573 21.811 21.573 12.008 0 21.812-9.697 21.812-21.573zm51.556 0c0-11.877-9.805-21.574-21.812-21.574-12.008 0-21.812 9.697-21.812 21.574 0 11.876 9.804 21.573 21.812 21.573 12.007 0 21.812-9.697 21.812-21.573z" fill-rule="nonzero" fill="currentColor"/></symbol>
  <symbol id="fullscreen" viewBox="0 0 100 100"><title>fullscreen</title><path d="M12.346 22.572l17.619 17.612 10.219-10.22-17.612-17.618L31.925 3H3v28.925l9.346-9.353zm10.226 65.082l17.612-17.619-10.22-10.219-17.618 17.612L3 68.075V97h28.925l-9.353-9.346zm54.856-75.308L59.816 29.965l10.22 10.219 17.618-17.612L97 31.925V3H68.075l9.353 9.346zm10.226 65.082L70.035 59.816l-10.219 10.22 17.612 17.618L68.075 97H97V68.075l-9.346 9.353z" fill="currentColor" fill-rule="evenodd"/></symbol>
  <symbol id="fulltriangle-down" viewBox="0 0 100 100"><title>fulltriangle-down</title><path d="M50 75l50-50H0z" fill-rule="nonzero" fill="currentColor"/></symbol>
  <symbol id="fulltriangle-left" viewBox="0 0 100 100"><title>fulltriangle-left</title><path d="M25 50L75 0v100z" fill-rule="nonzero" fill="currentColor"/></symbol>
  <symbol id="fulltriangle-right" viewBox="0 0 100 100"><title>fulltriangle-right</title><path d="M75 50L25 0v100z" fill-rule="nonzero" fill="currentColor"/></symbol>
  <symbol id="fulltriangle-up" viewBox="0 0 100 100"><title>fulltriangle-up</title><path d="M50 25l50 50H0z" fill="currentColor" fill-rule="nonzero"/></symbol>
  <symbol id="googleplus" viewBox="0 0 100 100"><title>googleplus</title><path d="M98.922 45.885H88.82V35.79h-8.082v10.094H70.634v8.075h10.103v10.094h8.082V53.96h10.103v-8.075zm-64.66-2.02v12.598h17.62c-1.354 7.591-7.94 13.123-17.62 13.123-10.668 0-19.337-9.024-19.337-19.684 0-10.66 8.669-19.663 19.337-19.663 4.81 0 9.113 1.655 12.508 4.885v.02l9.113-9.104c-5.597-5.209-12.891-8.419-21.62-8.419-17.863 0-32.33 14.455-32.33 32.301 0 17.847 14.467 32.302 32.33 32.302 18.67 0 31.036-13.123 31.036-31.575a36.81 36.81 0 0 0-.626-6.783h-30.41z" fill-rule="nonzero" fill="currentColor"/></symbol>
  <symbol id="instagram" viewBox="0 0 100 100"><title>Instagram</title><path d="M49.984.032c-13.575 0-15.277.057-20.608.3-5.32.243-8.954 1.088-12.133 2.324-3.287 1.277-6.075 2.986-8.854 5.765-2.778 2.779-4.488 5.566-5.765 8.853-1.236 3.18-2.08 6.813-2.323 12.133C.058 34.74 0 36.441 0 50.016 0 63.59.058 65.293.3 70.624c.243 5.32 1.088 8.954 2.324 12.133 1.277 3.287 2.987 6.075 5.765 8.854 2.78 2.778 5.567 4.488 8.854 5.765 3.179 1.236 6.813 2.08 12.133 2.323 5.331.243 7.033.301 20.608.301s15.277-.058 20.609-.3c5.32-.243 8.953-1.088 12.133-2.324 3.287-1.277 6.074-2.987 8.853-5.765 2.779-2.78 4.488-5.567 5.765-8.854 1.236-3.179 2.081-6.813 2.324-12.133.243-5.331.3-7.033.3-20.608s-.057-15.277-.3-20.609c-.243-5.32-1.088-8.953-2.324-12.133-1.277-3.287-2.986-6.074-5.765-8.853-2.779-2.779-5.566-4.488-8.853-5.765C79.546 1.42 75.913.575 70.593.332c-5.332-.243-7.034-.3-20.609-.3zm0 9.006c13.347 0 14.928.05 20.198.291 4.874.222 7.52 1.037 9.281 1.721 2.334.907 3.999 1.99 5.748 3.74 1.749 1.748 2.832 3.413 3.739 5.747.684 1.76 1.499 4.407 1.72 9.28.241 5.271.292 6.852.292 20.199 0 13.346-.05 14.927-.291 20.198-.222 4.873-1.037 7.52-1.721 9.281-.907 2.333-1.99 3.998-3.74 5.747-1.748 1.75-3.413 2.833-5.747 3.74-1.76.684-4.407 1.498-9.28 1.72-5.27.24-6.851.292-20.199.292-13.347 0-14.928-.051-20.198-.292-4.873-.222-7.52-1.036-9.281-1.72-2.333-.907-3.998-1.99-5.747-3.74-1.75-1.749-2.833-3.414-3.74-5.747-.684-1.761-1.498-4.408-1.72-9.281-.24-5.27-.292-6.852-.292-20.198 0-13.347.051-14.928.292-20.198.222-4.874 1.036-7.52 1.72-9.281.907-2.334 1.99-3.999 3.74-5.748 1.749-1.749 3.414-2.832 5.747-3.739 1.761-.684 4.408-1.499 9.281-1.72 5.27-.241 6.852-.292 20.198-.292zm.002 56.305c-8.466 0-15.329-6.863-15.329-15.328 0-8.466 6.863-15.329 15.329-15.329 8.465 0 15.328 6.863 15.328 15.329 0 8.465-6.863 15.328-15.328 15.328zm0-38.943c-13.042 0-23.615 10.573-23.615 23.615 0 13.041 10.573 23.614 23.615 23.614 13.041 0 23.614-10.573 23.614-23.614C73.6 36.973 63.027 26.4 49.986 26.4zm30.065-.933a5.518 5.518 0 1 0-11.037 0 5.518 5.518 0 0 0 11.037 0z" fill-rule="nonzero" fill="currentColor"/></symbol>
  <symbol id="interact" viewBox="0 0 100 100"><title>interact</title><path d="M40.625 5l-5.862 19.054L25 55.95l-.387-.784-1.175-4.281H0V63.33h14.45l4.688 14.387L25 96l5.863-18.282 9.762-31.113 9.763 31.113 5.075 16.34L62.1 78.117l7.425-18.282 1.563 3.497H100V50.886H78.9l-4.688-8.948-6.25-12.446-5.075 12.831-5.862 14.785-10.55-33.054L40.612 5z" fill="currentColor" fill-rule="nonzero"/></symbol>
  <symbol id="label" viewBox="0 0 100 100"><title>label</title><path d="M34.628 97.869l63.255-63.255-2.254-29.36L66.255 3 3 66.241 34.628 97.87zm33.881-79.062a9.583 9.583 0 0 1 13.56 0c3.733 3.733 3.733 9.805 0 13.545-3.747 3.734-9.812 3.734-13.56 0-3.733-3.733-3.733-9.812 0-13.552v.007z" fill="currentColor" fill-rule="evenodd"/></symbol>
  <symbol id="link" viewBox="0 0 100 100"><title>link</title><path d="M90.731 46.63c10.265-10.264 10.265-26.778 0-36.931C80.578-.566 64.064-.566 53.8 9.699L38.85 24.65c-10.154 10.154-10.154 26.667 0 36.932a5.993 5.993 0 0 0 8.479 0c2.455-2.343 2.455-6.137 0-8.48a14.21 14.21 0 0 1 0-19.972l15.063-14.951c5.467-5.468 14.393-5.468 19.86 0 5.468 5.467 5.468 14.393 0 19.86l-7.14 7.253c1.785 4.797 2.454 9.818 2.008 14.951L90.73 46.631zM61.61 75.753c10.153-10.153 10.153-26.667 0-36.932-2.343-2.343-6.249-2.343-8.592 0-2.343 2.343-2.343 6.249 0 8.592a13.876 13.876 0 0 1 0 19.86l-14.95 14.952c-5.468 5.467-14.394 5.467-19.862 0-5.467-5.468-5.467-14.394 0-19.861l7.141-7.141c-1.785-4.798-2.454-9.93-2.008-15.063L9.615 53.883C-.538 64.037-.538 80.55 9.615 90.815c10.265 10.153 26.778 10.153 36.932 0L61.61 75.752z" fill-rule="nonzero" fill="currentColor"/></symbol>
  <symbol id="listen" viewBox="0 0 100 100"><title>listen</title><path d="M50 6C29.363 6 12.5 22.863 12.5 43.5V56H6.25A6.25 6.25 0 0 0 0 62.25v25a6.25 6.25 0 0 0 6.25 6.25h12.5A6.25 6.25 0 0 0 25 87.25V43.5a24.93 24.93 0 0 1 25-25 24.93 24.93 0 0 1 25 25v43.75a6.25 6.25 0 0 0 6.25 6.25h12.5a6.25 6.25 0 0 0 6.25-6.25v-25A6.25 6.25 0 0 0 93.75 56H87.5V43.5C87.5 22.863 70.638 6 50 6z" fill="currentColor" fill-rule="nonzero"/></symbol>
  <symbol id="mail" viewBox="0 0 15 11"><title>Mail</title><path d="M0 11l.002-8.422L7.5 8.214 15 2.578V11H0zM1.208.998L13.785.996 7.5 5.714 1.208.998z" fill="currentColor" fill-rule="evenodd"/></symbol>
  <symbol id="map" viewBox="0 0 100 100"><title>map</title><path d="M0 0v99.939l15.79.061L63.157 0H0zm21.053 31.56c-5.814 0-10.527-4.71-10.527-10.52s4.713-10.52 10.527-10.52c5.813 0 10.526 4.71 10.526 10.52s-4.713 10.52-10.526 10.52zm18.42 68.379l18.422-36.82L100 89.42v10.52H39.474zM86.918 0H100v68.38L65.79 47.34 86.916 0z" fill="currentColor" fill-rule="nonzero"/></symbol>
  <symbol id="menu-hamburger" viewBox="0 0 48 48"><title>menu-hamburger</title><path d="M0 7.5C0 6.12 1.116 5 2.496 5h43.008A2.492 2.492 0 0 1 48 7.5c0 1.38-1.116 2.5-2.496 2.5H2.496A2.492 2.492 0 0 1 0 7.5zm0 17C0 23.12 1.116 22 2.496 22h43.008A2.492 2.492 0 0 1 48 24.5c0 1.38-1.116 2.5-2.496 2.5H2.496A2.492 2.492 0 0 1 0 24.5zm0 17C0 40.12 1.116 39 2.496 39h43.008A2.492 2.492 0 0 1 48 41.5c0 1.38-1.116 2.5-2.496 2.5H2.496A2.492 2.492 0 0 1 0 41.5z" fill="currentColor" fill-rule="nonzero"/></symbol>
  <symbol id="minus-thin" viewBox="0 0 100 100"><title>minus-thin</title><path d="M0 44.444h100v11.111H0z" fill-rule="nonzero" fill="currentColor"/></symbol>
  <symbol id="minus" viewBox="0 0 100 100"><title>minus</title><path d="M0 42.857v14.286h100V42.857z" fill="currentColor" fill-rule="evenodd"/></symbol>
  <symbol id="pause" viewBox="0 0 100 100"><title>pause</title><path d="M19 0h18v100H19V0zm44 0h18v100H63V0z" fill="currentColor" fill-rule="evenodd"/></symbol>
  <symbol id="phone" viewBox="0 0 100 100"><title>phone</title><path d="M56.398 78.8l11.725-11.726c1.612-1.604 3.744-2.14 5.349-1.076 5.863 2.125 12.26 3.202 19.2 3.202 3.195 0 5.328 2.126 5.328 5.335v18.13C98 95.867 95.874 98 92.665 98 42.54 98 2 57.474 2 7.335 2 4.125 4.126 2 7.335 2H26c3.202 0 5.335 2.126 5.335 5.335 0 6.398 1.063 12.795 3.195 19.2.535 1.598 0 3.73-1.063 5.335L21.2 43.595C28.674 58.53 41.47 70.798 56.398 78.8z" fill="currentColor" fill-rule="evenodd"/></symbol>
  <symbol id="pin" viewBox="0 0 100 100"><title>pin</title><path d="M50.336 0c9.173 0 17.032 3.25 23.548 9.78 6.523 6.523 9.78 14.375 9.78 23.549 0 5.793-1.444 11.232-4.305 16.324L52.178 98.96c-.376.693-.997 1.04-1.842 1.04-.853 0-1.467-.347-1.857-1.04L21.283 49.653C18.43 44.785 17 39.353 17 33.33c0-9.174 3.25-17.026 9.78-23.549C33.303 3.25 41.155 0 50.33 0h.007zm0 45.832c3.467 0 6.429-1.213 8.848-3.648 2.435-2.427 3.648-5.381 3.648-8.848 0-3.467-1.213-6.429-3.648-8.856-2.427-2.456-5.381-3.67-8.848-3.67-3.467 0-6.429 1.214-8.856 3.648-2.456 2.42-3.67 5.374-3.67 8.849 0 3.467 1.214 6.429 3.648 8.848 2.42 2.435 5.374 3.648 8.849 3.648l.029.03z" fill="currentColor" fill-rule="evenodd"/></symbol>
  <symbol id="pinterest" viewBox="0 0 100 100"><title>Pinterest</title><path d="M15 37.001c0-3.98.695-7.736 2.075-11.247 1.38-3.512 3.286-6.591 5.727-9.21 2.441-2.62 5.239-4.883 8.403-6.798a38.668 38.668 0 0 1 10.234-4.31A43.832 43.832 0 0 1 52.61 4c5.821 0 11.248 1.23 16.261 3.68 5.014 2.45 9.089 6.019 12.225 10.704 3.135 4.684 4.703 9.97 4.703 15.866 0 3.54-.347 7.004-1.051 10.394a42.044 42.044 0 0 1-3.314 9.783c-1.512 3.126-3.352 5.887-5.53 8.262-2.179 2.375-4.845 4.272-8.018 5.699-3.174 1.417-6.657 2.131-10.45 2.131-2.507 0-4.995-.591-7.464-1.765-2.47-1.183-4.244-2.798-5.305-4.863a796.267 796.267 0 0 0-1.549 6.224c-.666 2.714-1.098 4.46-1.295 5.249-.207.788-.583 2.103-1.136 3.924-.554 1.822-1.033 3.136-1.437 3.925-.404.788-.995 1.943-1.765 3.455a38.406 38.406 0 0 1-2.544 4.28 166.793 166.793 0 0 1-3.427 4.78l-.77.272-.498-.554c-.554-5.783-.826-9.257-.826-10.393 0-3.39.394-7.201 1.192-11.417.79-4.225 2.019-9.52 3.68-15.895 1.663-6.375 2.62-10.121 2.874-11.229-1.183-2.394-1.765-5.511-1.765-9.342 0-3.06.957-5.933 2.873-8.628 1.915-2.694 4.347-4.037 7.295-4.037 2.253 0 4 .751 5.248 2.244 1.258 1.493 1.878 3.38 1.878 5.67 0 2.432-.808 5.953-2.432 10.563-1.624 4.61-2.432 8.055-2.432 10.337 0 2.319.827 4.253 2.488 5.774 1.662 1.53 3.671 2.29 6.028 2.29 2.028 0 3.906-.46 5.643-1.38a12.664 12.664 0 0 0 4.337-3.755 31.508 31.508 0 0 0 3.098-5.257 30.281 30.281 0 0 0 2.103-6.113c.498-2.159.864-4.206 1.108-6.14a43.9 43.9 0 0 0 .357-5.502c0-6.374-2.018-11.341-6.056-14.9-4.037-3.558-9.294-5.332-15.782-5.332-7.37 0-13.53 2.385-18.468 7.163-4.938 4.77-7.407 10.826-7.407 18.168 0 1.624.234 3.192.694 4.703.46 1.512.958 2.714 1.493 3.596a170.78 170.78 0 0 1 1.493 2.516c.46.789.695 1.352.695 1.69 0 1.033-.272 2.376-.826 4.037-.554 1.662-1.24 2.488-2.047 2.488-.075 0-.385-.056-.939-.169-1.878-.553-3.549-1.586-5.004-3.098a16.09 16.09 0 0 1-3.37-5.23 34.213 34.213 0 0 1-1.794-5.97A25.383 25.383 0 0 1 15 37z" fill-rule="nonzero" fill="currentColor"/></symbol>
  <symbol id="plus-thin" viewBox="0 0 100 100"><title>plus-thin</title><path d="M44.444 44.444H0v11.112h44.444V100h11.112V55.556H100V44.444H55.556V0H44.444v44.444z" fill="currentColor" fill-rule="nonzero"/></symbol>
  <symbol id="plus" viewBox="0 0 100 100"><title>plus</title><path d="M42.857 42.857H0v14.286h42.857V100h14.286V57.143H100V42.857H57.143V0H42.857z" fill="currentColor" fill-rule="evenodd"/></symbol>
  <symbol id="point-down" viewBox="0 0 100 100"><title>point-down</title><path d="M12.121 20L0 32.727l50 47.62 50-47.62L87.879 20 50 56.075z" fill="currentColor" fill-rule="nonzero"/></symbol>
  <symbol id="point-left" viewBox="0 0 100 100"><title>point-left</title><path d="M80.178 12.294L67.45.172 19.828 50.175l47.622 50.003 12.728-12.122-36.077-37.881z" fill-rule="nonzero" fill="currentColor"/></symbol>
  <symbol id="point-right" viewBox="0 0 100 100"><title>point-right</title><path d="M19.827 88.052l12.727 12.121 47.62-50-47.62-50-12.727 12.121 36.075 37.88z" fill-rule="nonzero" fill="currentColor"/></symbol>
  <symbol id="point-up" viewBox="0 0 100 100"><title>point-up</title><path d="M12.122 80.35L0 67.622 50.003 20l50.003 47.622L87.884 80.35 50.003 44.273z" fill-rule="nonzero" fill="currentColor"/></symbol>
  <symbol id="price" viewBox="0 0 100 100"><title>price</title><path d="M55.821 0c9.429 0 18.515 1.843 27.272 5.521l-7.407 19.465c-6.643-2.472-12.3-3.715-16.972-3.715-2.607 0-4.521.75-5.757 2.229-1.236 1.486-1.857 3.814-1.857 7v7.143h23.171v18.643H51.107v6.478c0 6.729-3.571 11.829-10.714 15.286h45.193V100H14.143V78.929c3.628-2.115 6.086-3.836 7.357-5.158a12.096 12.096 0 0 0 2.8-4.542c.586-1.715.879-3.822.879-6.336v-6.6H14V37.65h11.179v-7.943c0-9.657 2.628-17.014 7.878-22.093C38.307 2.536 45.9 0 55.821 0z" fill="currentColor" fill-rule="evenodd"/></symbol>
  <symbol id="quote" viewBox="0 0 100 100"><title>quote</title><path d="M0 13v37.5h25a24.93 24.93 0 0 1-25 25V88c20.637 0 37.5-16.862 37.5-37.5V13H0zm62.5 0v37.5h25a24.93 24.93 0 0 1-25 25V88C83.138 88 100 71.138 100 50.5V13H62.5z" fill="currentColor" fill-rule="nonzero"/></symbol>
  <symbol id="search" viewBox="0 0 100 100"><title>search</title><path d="M39.988 69.975C22.874 69.975 9 56.102 9 38.988 9 21.874 22.874 8 39.988 8c17.114 0 30.987 13.874 30.987 30.988 0 17.114-13.873 30.987-30.987 30.987zm22.536-8.451l12.732 12.732L94 93 62.524 61.524z" stroke="currentColor" stroke-width="9.444" fill-rule="nonzero" fill="none"/></symbol>
  <symbol id="signpost" viewBox="0 0 100 100"><title>signpost</title><path d="M38.682 20.6v16.361H9.181L1 28.781 9.18 20.6h29.502zm51.522 4.94H57.692v8.181h22.14l8.183 8.184-8.182 8.178H57.692v45.434h31.136v2.644H57.692v.068H41.937v-.068H10.8v-2.644h31.137V1h15.755v8.18h32.512l8.181 8.181-8.18 8.18z" fill="currentColor" fill-rule="nonzero"/></symbol>
  <symbol id="tfl" viewBox="0 0 100 100"><title>transport for london</title><g fill-rule="nonzero" fill="currentColor"><path d="M50.5 10C28.143 10 10 28.143 10 50.5 10 72.855 28.143 91 50.5 91 72.855 91 91 72.855 91 50.5 91 28.14 72.855 10 50.5 10zm0 14.035c14.604 0 26.467 11.86 26.467 26.465 0 14.603-11.863 26.465-26.467 26.465S24.031 65.103 24.031 50.5c0-14.605 11.865-26.465 26.469-26.465z"/><path d="M0 58h100V43H0z"/></g></symbol>
  <symbol id="ticket" viewBox="0 0 100 100"><title>ticket</title><path d="M56.23 28.308l-3.521 3.52 5.128 5.127 3.52-3.52-5.127-5.127zm10.285 10.286l-3.52 3.519 5.128 5.127 3.52-3.52-5.128-5.126zM63.16 1L73.88 11.717c-3.477 4.012-3.309 10.088.504 13.902 3.813 3.812 9.889 3.98 13.902.503L99 36.84 81.881 53.96l-5.08-5.082-3.521 3.52 5.08 5.08L36.84 99 26.027 88.187c2.767-3.981 2.377-9.494-1.17-13.04-3.552-3.55-9.063-3.94-13.044-1.173L1 63.16l41.522-41.52 5.03 5.031 3.52-3.52-5.031-5.031L63.16 1z" fill="currentColor" fill-rule="nonzero"/></symbol>
  <symbol id="tumblr" viewBox="0 0 100 100"><title>tumblr</title><path d="M81.596 93.723V78.792s-8.077 4.041-14.134 4.041c-10.097 0-12.116-4.041-12.116-14.146v-24.25h22.212V26.25H55.346V2H41.212C39.192 20.187 31.115 26.25 19 30.292v14.145h14.135V74.75c0 16.167 8.077 24.25 26.25 24.25 14.134 0 22.211-5.277 22.211-5.277z" fill-rule="nonzero" fill="currentColor"/></symbol>
  <symbol id="twitter" viewBox="0 0 100 100"><title>Twitter</title><path d="M32.363 87.435c34.863 0 53.928-28.9 53.928-53.963 0-.82-.017-1.638-.054-2.451a38.559 38.559 0 0 0 9.455-9.821 37.775 37.775 0 0 1-10.885 2.986 19.032 19.032 0 0 0 8.335-10.49 37.997 37.997 0 0 1-12.036 4.603 18.926 18.926 0 0 0-13.835-5.992c-10.466 0-18.954 8.494-18.954 18.963 0 1.489.166 2.936.491 4.325-15.752-.793-29.72-8.34-39.069-19.816a18.925 18.925 0 0 0-2.566 9.533c0 6.58 3.346 12.389 8.434 15.787-3.11-.096-6.03-.95-8.584-2.372-.003.08-.003.157-.003.242 0 9.185 6.534 16.854 15.206 18.592a18.966 18.966 0 0 1-8.56.325c2.413 7.536 9.41 13.02 17.706 13.173a38.007 38.007 0 0 1-23.54 8.118 38.47 38.47 0 0 1-4.522-.262 53.625 53.625 0 0 0 29.054 8.52" fill-rule="nonzero" fill="currentColor"/></symbol>
  <symbol id="valogo-clipped" viewBox="0 0 500 287"><title>valogo-clipped</title><path d="M497.821 282.236c1.087.18 2.183.695 2.183 2.527 0 .671-.407 1.282-.951 1.647H378.985c-.6-.373-.96-1.015-.96-1.79 0-1.017.538-2.17 1.872-2.365a59.277 59.277 0 0 1 3.703-.407c4.262-.358 9.802-1.094 12.711-2.477 3.688-1.755 5.874-5.495 5.874-8.76 0-2.579-1.124-5.935-2.283-9.324l-65.88-182.601S359.332 3.104 359.87 1.464c.627-1.916 2.42-1.967 3.138-.062.629 1.662 96.134 251.01 98.56 257.333 7.558 19.734 20.269 22.124 31.9 23.066 2.377.194 3.894.361 4.352.435zm-138.614-17.87c1.704.536 2.073 2.597 1.466 4.021-3.093 7.246-13.882 15.873-28.046 18.022h-14.773c-14.003-1.757-24.017-8.009-29.833-15.956-10.218 7.352-22.217 13.072-36.055 15.956h-39.964c-29.143-6.51-44.743-27.794-44.744-53.228 0-27.548 19.51-47.622 42.498-58.375 4.232-1.937 9.248-4.128 13.29-5.586 0 0-3.37-5.149-6.444-10.244-11.373-18.86-13.87-41.41-4.204-56.853 10.01-15.992 28.48-22.382 45.76-22.382 13.86 0 26.07 4.343 34.222 9.771 7.929 5.28 13.722 13.2 13.722 23.392 0 17.189-13.816 27.7-22.845 32.93-9.254 5.36-22.884 12.49-22.884 12.49s32.923 52.05 51.068 80.728c9.973-15.068 16.83-35.12 18.641-48.722.81-6.089 1.225-10.559-3.047-13.421-2.65-1.775-6.896-2.436-12.705-2.742-.889-.046-2.199-.18-2.932-.356-1.058-.257-1.79-.891-1.79-2.018 0-1.2.7-2.2 2.242-2.2l46.363.01c.941 0 1.827.552 1.992 1.808.108.834-.238 1.978-1.437 2.334-.863.255-1.884.368-4.186.6-5.305.534-8.977 1.673-12.338 5.62-2.425 2.849-4.043 9.712-5.141 14.253-3.184 13.17-10.124 33.117-22.297 50.157 4.784 7.559 7.965 12.587 8.274 13.07 5.609 8.805 13.157 17.456 20.657 17.456 4.01 0 8.18-1.247 10.114-5.852 1.667-3.97 3.082-5.394 5.356-4.682zM258.45 274.392c9.086 0 18.173-3.293 26.369-8.776-18.644-28.817-20.78-32.244-59.129-91.826l-.12-.186-.053-.083c-17.584 11.364-22.403 29.403-22.403 43.244 0 28.598 24.275 57.627 55.336 57.627zM238.688 92.36c-6.946 10.057-2.26 24.999 2.839 34.661 5.821 11.032 15.978 26.835 15.978 26.835 11.778-7.806 19.1-21.83 19.1-36.426 0-23.222-11.963-32.42-21.748-32.42-7.202 0-12.576 2.148-16.169 7.35zm-6.298-80c-3.49 2.069-5.536 6.202-6.807 9.321-1.433 3.517-97.996 247.63-104.79 264.728h-3.283c-5.469-16.533-83.259-252.095-85.2-257.95-2.008-6.056-6.035-13.649-11.916-16.481-2.9-1.396-5.432-2.067-13.274-2.625-3.531-.253-5.413-.5-6.042-.789C.43 8.267-.075 7.656.01 6.571.114 5.2 1.196 4.537 2.181 4.537l107.154-.007c1.66 0 2.54.318 2.843 1.842.29 1.464-.479 2.661-1.832 2.778-1.287.11-1.944.163-3.357.261-10.293.715-14.419 2.433-16.49 7.326-1.136 2.68-.253 7.566 1.948 14.502 2.2 6.937 52.931 167.589 53.703 170.008h.258s64.04-165.361 66.45-171.914c2.418-6.576 3.57-12.107 1.424-15.22-2.284-3.313-5.342-4.147-13.3-4.709-3.298-.233-6.256-.417-7.549-.59-1.709-.228-2.075-1.23-2.075-2.121 0-1.756 1.503-2.15 2.804-2.15l55.638.02c1 0 2.066.766 2.066 2.158 0 1.317-1.012 2.04-2.31 2.11-9.17.497-13.705 1.479-17.166 3.53z" fill="currentColor" fill-rule="nonzero"/></symbol>
  <symbol id="valogo" viewBox="0 0 500 287"><title>valogo</title><path d="M496.859 279.87c-.457-.073-1.968-.238-4.335-.43-11.586-.931-24.247-3.292-31.776-22.793-2.416-6.249-97.554-252.654-98.177-254.297-.716-1.881-2.501-1.831-3.127.062-.535 1.62-25.75 76.311-25.75 76.311l65.626 180.443c1.151 3.351 2.273 6.668 2.273 9.216 0 3.225-2.178 6.922-5.851 8.656-2.899 1.366-8.416 2.093-12.663 2.448-1.337.11-2.48.226-3.687.402-1.33.193-1.864 1.333-1.864 2.338 0 1.23.923 2.117 2.273 2.117h117.207c.983 0 2.026-.912 2.026-1.975 0-1.81-1.093-2.319-2.174-2.498h-.001zM232.455 13.183c3.447-2.027 7.965-2.996 17.101-3.489 1.293-.07 2.3-.783 2.3-2.085 0-1.375-1.062-2.133-2.058-2.133l-55.42-.02c-1.297 0-2.796.391-2.796 2.127 0 .88.368 1.87 2.07 2.097 1.286.169 4.233.351 7.52.581 7.926.554 10.972 1.38 13.249 4.653 2.137 3.076.988 8.54-1.42 15.04-2.4 6.474-66.192 169.885-66.192 169.885h-.258c-.768-2.389-51.302-161.144-53.495-167.998-2.19-6.857-3.07-11.683-1.94-14.333 2.064-4.836 6.174-6.534 16.426-7.24 1.408-.096 2.06-.149 3.344-.259 1.348-.116 2.114-1.299 1.824-2.744-.302-1.508-1.18-1.819-2.832-1.819L3.14 5.453c-.981 0-2.06.654-2.164 2.01-.084 1.073.419 1.676 1.064 1.97.628.284 2.503.528 6.019.777 7.811.551 10.336 1.215 13.223 2.595 5.86 2.798 9.87 10.3 11.87 16.287 2.003 5.986 84.912 255.053 85.175 255.813.401 1.165 2.087 1.208 2.592.025.51-1.203 103.281-258.943 104.756-262.535 1.267-3.083 3.305-7.168 6.78-9.21v-.002zm126.324 249.03c-2.263-.706-3.673.702-5.333 4.626-1.927 4.55-6.08 5.783-10.075 5.783-7.47 0-14.99-8.55-20.575-17.249-.306-.478-3.477-5.447-8.24-12.918 12.125-16.838 19.038-36.55 22.208-49.563 1.093-4.488 2.708-11.27 5.122-14.085 3.346-3.9 7.005-5.025 12.289-5.554 2.292-.229 3.31-.34 4.17-.592 1.193-.352 1.538-1.481 1.43-2.307-.165-1.241-1.045-1.787-1.983-1.787l-46.184-.008c-1.537 0-2.234.988-2.234 2.174 0 1.113.73 1.74 1.784 1.993.73.176 2.034.306 2.92.352 5.788.3 10.016.954 12.655 2.709 4.255 2.828 3.842 7.245 3.037 13.263-1.806 13.442-8.637 33.256-18.57 48.146-18.073-28.34-50.87-79.774-50.87-79.774s13.58-7.047 22.796-12.342c8.994-5.167 22.756-15.555 22.756-32.541 0-10.072-5.77-17.897-13.67-23.115-8.12-5.363-20.282-9.653-34.088-9.653-17.211 0-35.611 6.313-45.58 22.116-9.63 15.26-7.144 37.545 4.185 56.182a371.05 371.05 0 0 0 6.42 10.123c-4.026 1.44-9.023 3.606-13.238 5.52-22.9 10.626-42.333 30.463-42.333 57.686 0 30.283 22.54 54.637 64.087 54.637 22.655 0 41.325-7.183 56.206-17.806 6.86 9.296 19.555 16.273 37.801 16.273 17.312 0 31.02-10.07 34.568-18.316.604-1.408.238-3.444-1.46-3.971v-.002zM238.733 92.236c3.578-5.14 8.931-7.264 16.105-7.264 9.746 0 21.665 9.092 21.665 32.038 0 14.423-7.296 28.283-19.027 35.996 0 0-10.116-15.616-15.916-26.516-5.077-9.55-9.746-24.315-2.827-34.254zm-35.438 122.937c0-13.68 4.8-31.505 22.316-42.735l.021.033-.02-.033.052.083c.03.043.068.106.12.183 38.2 58.879 40.327 62.265 58.898 90.743-8.163 5.418-17.215 8.672-26.265 8.672-30.941 0-55.123-28.685-55.123-56.945l.001-.001z" fill="currentColor" fill-rule="nonzero"/></symbol>
  <symbol id="walk" viewBox="0 0 100 100"><title>walk</title><path d="M55.088 6.054c0-3.37-2.684-6.054-5.98-6.054-3.384 0-6.076 2.684-6.076 6.054 0 1.558.608 3.2 1.302 4.674.348.689.523 1.383.523 2.158 0 2.356-1.65 5.368-4.085 5.813-7.022 1.911-12.665 10.395-15.954 16.26-1.218 2.174-1.825 4.688-1.825 7.202v11.495c0 1.126.955 2.069 2.079 2.069 1.212 0 2.173-.943 2.173-2.069v-7.62c0-3.378 1.388-6.572 3.815-8.91l5.376-5.185c.262-.176.524-.351.87-.351.602 0 1.125.445 1.204 1.047 1.99 9.786 1.126 19.901-2.514 29.406L21.256 92.8c-.175.438-.256.953-.256 1.475 0 1.466.864 2.68 2.346 3.2l7.717 2.422c.607.172 1.304-.349 1.304-.954 0-.348-.17-.688-.435-.864l-3.129-2.241c-.524-.437-.864-.95-.864-1.642 0-.435.086-.691.346-1.04l13.268-21.105c1.754-2.676 2.959-5.441 3.744-8.557L67.162 98.87c.445.686 1.126 1.126 1.911 1.126.707 0 1.31-.267 1.755-.786l6.415-7.266c.183-.173.262-.432.262-.686 0-.524-.424-.943-1.032-.943-.086 0-.262 0-.348.105l-3.3 1.205c-.35.183-.437.183-.785.183a2.021 2.021 0 0 1-1.82-1.113l-2.095-3.734-9.536-21.964c-3.818-9.086-4.425-19.026-1.912-28.463.09-.34.351-.603.697-.603.262 0 .435.176.602.349 5.384 6.742 12.752 10.722 21.341 11.416.961 0 1.833-.785 1.833-1.65 0-.69-.505-1.387-1.205-1.555-9.277-2.678-16.391-10.029-18.735-19.377l-.691-2.152c-.262-1.032-1.218-1.728-2.347-1.728-2.859-.079-5.375-1.912-5.983-4.845-.356-2.252-.356-2.414-.356-2.414 0-.524.437-.95 1.047-.95 0 0 .173 0 .524.078h.254c.786 0 1.48-.68 1.48-1.466V6.049l-.05.005z" fill="currentColor" fill-rule="evenodd"/></symbol>
  <symbol id="watch" viewBox="0 0 100 100"><title>watch</title><path d="M0 0v100l100-50z" fill="currentColor" fill-rule="nonzero"/></symbol>
  <symbol id="youtube" viewBox="0 0 100 100"><title>YouTube</title><path d="M39.001 35.33l29.333 14.642L39 64.668V35.33zM94.003 50c-.11-22.678-1.776-31.352-16.077-32.326-13.217-.902-42.648-.896-55.843 0C7.793 18.648 6.11 27.284 6 50c.11 22.677 1.777 31.351 16.077 32.325 13.195.896 42.627.902 55.844 0 14.29-.974 15.972-9.609 16.082-32.325z" fill="currentColor" fill-rule="nonzero"/></symbol>
</svg>